<svg xmlns="http://www.w3.org/2000/svg" width="465" height="325"><path d="M117.77 322.459C89.419 318.945 66.799 307 45.06 284.063 19.326 256.91 6.49 226.519 2.521 183.343c-1.532-16.666-.625-39.517 2.028-51.056C13.966 91.325 47.08 46.546 84.692 23.913c26.539-15.97 61.915-24.666 90.361-22.214 26.446 2.28 42.421 7.068 62.639 18.774 21.323 12.346 35.765 26.597 48.337 47.696 7.403 12.424 11.948 18.65 17.689 24.238l5.08 4.943-1.888 5.94c-1.038 3.267-3.602 10.641-5.697 16.386-2.095 5.746-6.244 18.772-9.22 28.947-2.976 10.175-5.635 18.5-5.908 18.5-.273 0-1.954-4.526-3.735-10.058-6.556-20.369-19.958-44.39-33.545-60.125-14.933-17.292-37.715-32.612-55.511-37.328-8.203-2.174-27.25-4.782-34.924-4.783-8.624 0-21.821 1.908-30.648 4.434-7.235 2.07-25.925 11.163-33.709 16.4-18.77 12.63-37.402 44.165-42.545 72.009-1.747 9.459-1.234 36.3.876 45.851 4.218 19.09 13.594 37.36 25.429 49.552 6.814 7.019 19.369 16.127 29.091 21.105 24.398 12.491 55.612 11.9 80.731-1.529 10.379-5.549 17.394-11.996 24.344-22.371 6.5-9.705 8.91-15.189 11.639-26.484 6.252-25.874 1.674-53.162-12.702-75.714-8.75-13.727-22.53-25.458-34.524-29.393-8.011-2.627-22.491-3.204-31.127-1.239-16.105 3.664-30.872 15.418-37.784 30.075-5.007 10.618-6.432 17.414-6.479 30.905-.03 9.3.293 12.404 1.829 17.412 4.616 15.055 18.011 30.794 28.984 34.056 6.107 1.815 16.595 1.766 22.927-.108 13.376-3.96 22.469-18.397 21.31-33.838-1.259-16.777-10.674-27.533-24.099-27.533-5.442 0-5.791.131-8.967 3.38-2.643 2.703-3.305 4.022-3.305 6.587 0 5.137 1.165 6.611 4.462 5.644 7.325-2.148 13.899.417 16.806 6.558 1.631 3.446 1.871 5.077 1.534 10.448-.458 7.305-2.053 10.716-6.871 14.698-2.659 2.198-4.164 2.726-8.583 3.014-2.947.191-7.54-.114-10.206-.68-3.999-.849-5.706-1.842-9.761-5.682-8.832-8.362-12.929-19.663-12.91-35.618.01-13.948 3.866-24.866 11.961-33.924 8.836-9.886 17.507-13.279 31.872-12.472 14.743.829 25.102 5.68 35.756 16.741 7.449 7.734 11.694 15.048 14.894 25.659 3.687 12.226 4.537 18.806 4.036 31.248-.742 18.429-4.987 30.117-14.925 41.094-28.429 31.401-80.003 29.656-111.383-3.769-11.016-11.734-15.663-21.3-19.594-40.331-2.006-9.713-2.334-13.365-2.379-26.5-.05-17.022.425-19.704 6.344-35.185 8.313-21.743 25.879-40.971 46.18-50.548 14.857-7.01 25.625-9.377 42.773-9.407 9.873-.01 14.605.39 20.857 1.799 27.516 6.195 55.155 25.249 68.553 47.26 20.805 34.177 30.462 69.2 27.787 100.774-1.535 18.116-6.741 33.138-16.891 48.738-5.5 8.453-19.359 23.576-26.961 29.419-16.854 12.956-39.55 21.695-65.124 25.077-12.743 1.685-36.596 1.695-50.099.02zm100.192-.214c0-.39 1.628-1.634 3.618-2.764 21.417-12.158 40.003-28.847 48.469-43.524l3.136-5.436.466 2.929c.46 2.893 2.202 28.721 2.202 32.653 0 1.635-1.118 2.604-5.746 4.977-11.083 5.683-23.695 9.174-39.553 10.95-9.925 1.111-12.591 1.157-12.591.215zm72.789-19.219l-3.405-.529-.999-7.835c-1.811-14.203-1.51-23.257 2.273-68.341 1.316-15.691 3.679-29.805 8.972-53.608 6-26.979 15.87-60.003 17.934-60.003 1.327 0 2.796 5.886 2.846 11.401.03 2.919-.755 11.341-1.737 18.718-1.472 11.061-1.71 16.233-1.356 29.517.48 18.042 1.825 24.979 7.015 36.162 5.12 11.032 19.237 23.513 29.167 25.786 10.094 2.31 22.896-2.394 31.057-11.411 8.719-9.633 12.695-20.634 12.666-35.038-.03-16.037-4.64-27.62-21.403-53.804-5.671-8.858-10.528-16.986-10.794-18.063-.774-3.14.237-4.572 3.226-4.572 4.144 0 8.188 4.953 24.066 29.479 7.724 11.932 15.064 22.514 16.311 23.517 2.764 2.223 7.699 3.709 10.193 3.069 1.013-.26 5.366-4.938 9.673-10.395 11.606-14.706 17.986-20.788 26.154-24.929 5.818-2.95 7.205-3.35 8.726-2.517 3.599 1.97 2.28 4.615-5.939 11.904-8.059 7.148-18.608 19.289-23.334 26.856-5.365 8.59-9.008 17.209-14.879 35.203-6.532 20.02-10.158 28.808-15.03 36.427-13.401 20.956-28.592 36.583-45.795 47.11-11.128 6.81-30.607 13.169-47.119 15.382-9.975 1.337-12.713 1.413-18.49.515z" fill="#9a2a15" fill-rule="evenodd"/></svg>