<?xml version="1.0" encoding="UTF-8" standalone="no"?>
<!DOCTYPE svg PUBLIC "-//W3C//DTD SVG 1.1//EN" "http://www.w3.org/Graphics/SVG/1.1/DTD/svg11.dtd">
<svg width="100%" height="100%" viewBox="0 0 478 230" version="1.1" xmlns="http://www.w3.org/2000/svg" xmlns:xlink="http://www.w3.org/1999/xlink" xml:space="preserve" xmlns:serif="http://www.serif.com/" style="fill-rule:evenodd;clip-rule:evenodd;stroke-linejoin:round;stroke-miterlimit:1.41421;">
    <g transform="matrix(1,0,0,1,-131.715,-10)">
        <g transform="matrix(4.16667,0,0,4.16667,-161.194,290.781)">
            <g transform="matrix(1,0,0,1,29.925,-2.4711)">
                <path d="M40.373,-17.337L40.792,-17.337C40.942,-15.15 41.571,-13.443 42.679,-12.185C43.787,-10.897 45.195,-10.268 46.932,-10.268C48.31,-10.268 49.448,-10.688 50.376,-11.556C51.305,-12.425 51.754,-13.503 51.754,-14.791C51.754,-15.33 51.634,-15.839 51.425,-16.288C51.215,-16.768 50.915,-17.187 50.496,-17.516C49.837,-18.086 48.31,-18.625 45.943,-19.074C45.764,-19.104 45.644,-19.134 45.554,-19.134C43.697,-19.493 42.349,-20.122 41.571,-20.961C40.792,-21.799 40.403,-23.027 40.403,-24.615C40.403,-26.412 40.882,-27.85 41.87,-28.898C42.859,-29.946 44.176,-30.485 45.854,-30.485C46.902,-30.485 47.98,-30.186 49.028,-29.647C50.107,-29.078 50.646,-28.778 50.676,-28.778C50.915,-28.778 51.095,-28.868 51.215,-29.048C51.365,-29.227 51.425,-29.467 51.425,-29.766L51.425,-29.916L51.844,-29.916L51.844,-24.076L51.425,-24.076C51.185,-25.993 50.586,-27.46 49.627,-28.508C48.639,-29.557 47.381,-30.066 45.854,-30.066C44.536,-30.066 43.517,-29.736 42.769,-29.018C42.05,-28.329 41.69,-27.34 41.69,-26.082C41.69,-25.364 41.81,-24.735 42.08,-24.225C42.319,-23.716 42.739,-23.297 43.278,-22.968C43.637,-22.758 44.356,-22.578 45.524,-22.369C46.662,-22.189 47.531,-22.039 48.13,-21.889C49.927,-21.47 51.185,-20.841 51.964,-19.972C52.712,-19.104 53.102,-17.906 53.102,-16.318C53.102,-14.372 52.563,-12.784 51.454,-11.616C50.316,-10.448 48.849,-9.849 47.022,-9.849C45.943,-9.849 44.805,-10.089 43.577,-10.628C42.319,-11.137 41.661,-11.406 41.511,-11.406C41.301,-11.406 41.151,-11.317 41.002,-11.077C40.882,-10.867 40.792,-10.598 40.792,-10.238L40.373,-10.238L40.373,-17.337Z" style="fill:rgb(35,31,32);fill-rule:nonzero;"/>
                <path d="M54.18,-10.238L54.18,-10.658L55.887,-10.658L55.887,-29.647L54.18,-29.647L54.18,-30.066L55.618,-30.066C56.187,-30.066 56.666,-30.126 57.115,-30.246C57.564,-30.365 57.984,-30.545 58.403,-30.785L58.403,-10.658L60.05,-10.658L60.05,-10.238L54.18,-10.238Z" style="fill:rgb(35,31,32);fill-rule:nonzero;"/>
                <path d="M61.159,-16.199C61.159,-17.037 61.308,-17.846 61.638,-18.595C61.937,-19.373 62.387,-20.062 62.986,-20.691C63.555,-21.29 64.184,-21.74 64.872,-22.069C65.531,-22.369 66.25,-22.518 66.999,-22.518C68.556,-22.518 69.904,-21.889 71.072,-20.631C72.24,-19.373 72.809,-17.906 72.809,-16.199C72.809,-15.39 72.66,-14.581 72.36,-13.833C72.031,-13.054 71.582,-12.335 70.982,-11.706C70.443,-11.107 69.814,-10.658 69.155,-10.358C68.497,-10.059 67.778,-9.909 66.999,-9.909C66.25,-9.909 65.531,-10.059 64.843,-10.358C64.184,-10.688 63.555,-11.107 62.986,-11.706C62.387,-12.335 61.937,-13.024 61.638,-13.803C61.308,-14.551 61.159,-15.36 61.159,-16.199ZM63.854,-14.402C63.854,-13.024 64.124,-11.976 64.633,-11.317C65.142,-10.658 65.921,-10.328 66.999,-10.328C68.077,-10.328 68.856,-10.658 69.365,-11.317C69.874,-11.976 70.114,-13.024 70.114,-14.402L70.114,-18.026C70.114,-19.403 69.874,-20.452 69.365,-21.111C68.856,-21.77 68.077,-22.099 66.999,-22.099C65.921,-22.099 65.142,-21.77 64.633,-21.111C64.124,-20.452 63.854,-19.403 63.854,-18.026L63.854,-14.402Z" style="fill:rgb(35,31,32);fill-rule:nonzero;"/>
                <path d="M73.588,-21.74L73.588,-22.159L79.159,-22.159L79.159,-21.74L77.452,-21.74L81.016,-13.323L83.083,-18.325L81.585,-21.74L79.668,-21.74L79.668,-22.159L86.257,-22.159L86.257,-21.74L84.221,-21.74L87.755,-13.323L90.511,-20.062C90.63,-20.332 90.69,-20.512 90.72,-20.661C90.78,-20.781 90.78,-20.901 90.78,-20.991C90.78,-21.26 90.69,-21.44 90.451,-21.56C90.241,-21.65 89.702,-21.71 88.833,-21.74L88.833,-22.159L92.996,-22.159L92.996,-21.74L92.817,-21.74C92.427,-21.74 92.098,-21.59 91.858,-21.32C91.589,-21.081 91.259,-20.422 90.81,-19.373L86.946,-10.029L86.707,-9.879L83.352,-17.636L80.207,-10.029L79.968,-9.879L74.816,-21.74L73.588,-21.74Z" style="fill:rgb(35,31,32);fill-rule:nonzero;"/>
                <path d="M101.053,-10.238L101.053,-10.658L103.359,-10.658L103.359,-29.647L101.053,-29.647L101.053,-30.066L116.059,-30.066L116.478,-25.004L115.999,-25.004C115.849,-26.771 115.31,-27.969 114.381,-28.628C113.453,-29.317 111.836,-29.647 109.469,-29.647L106.355,-29.647L106.355,-20.542L107.133,-20.542C109.11,-20.542 110.398,-20.811 110.967,-21.29C111.536,-21.799 111.836,-22.728 111.836,-24.166L111.836,-24.285L112.255,-24.285L112.255,-16.618L111.836,-16.648C111.836,-18.026 111.536,-18.954 110.967,-19.433C110.398,-19.883 109.14,-20.122 107.133,-20.122L106.355,-20.122L106.355,-10.658L108.781,-10.658L108.781,-10.238L101.053,-10.238Z" style="fill:rgb(35,31,32);fill-rule:nonzero;"/>
                <path d="M115.175,-16.199C115.175,-17.037 115.325,-17.846 115.654,-18.595C115.954,-19.373 116.403,-20.062 117.002,-20.691C117.571,-21.29 118.2,-21.74 118.889,-22.069C119.548,-22.369 120.267,-22.518 121.016,-22.518C122.573,-22.518 123.921,-21.889 125.089,-20.631C126.257,-19.373 126.826,-17.906 126.826,-16.199C126.826,-15.39 126.676,-14.581 126.377,-13.833C126.047,-13.054 125.598,-12.335 124.999,-11.706C124.46,-11.107 123.831,-10.658 123.172,-10.358C122.513,-10.059 121.794,-9.909 121.016,-9.909C120.267,-9.909 119.548,-10.059 118.859,-10.358C118.2,-10.688 117.571,-11.107 117.002,-11.706C116.403,-12.335 115.954,-13.024 115.654,-13.803C115.325,-14.551 115.175,-15.36 115.175,-16.199ZM117.871,-14.402C117.871,-13.024 118.14,-11.976 118.649,-11.317C119.159,-10.658 119.937,-10.328 121.016,-10.328C122.094,-10.328 122.872,-10.658 123.382,-11.317C123.891,-11.976 124.13,-13.024 124.13,-14.402L124.13,-18.026C124.13,-19.403 123.891,-20.452 123.382,-21.111C122.872,-21.77 122.094,-22.099 121.016,-22.099C119.937,-22.099 119.159,-21.77 118.649,-21.111C118.14,-20.452 117.871,-19.403 117.871,-18.026L117.871,-14.402Z" style="fill:rgb(35,31,32);fill-rule:nonzero;"/>
                <path d="M128.204,-16.199C128.204,-17.037 128.354,-17.846 128.683,-18.595C128.982,-19.373 129.432,-20.062 130.031,-20.691C130.6,-21.29 131.229,-21.74 131.918,-22.069C132.577,-22.369 133.295,-22.518 134.044,-22.518C135.602,-22.518 136.949,-21.889 138.118,-20.631C139.286,-19.373 139.855,-17.906 139.855,-16.199C139.855,-15.39 139.705,-14.581 139.405,-13.833C139.076,-13.054 138.627,-12.335 138.028,-11.706C137.489,-11.107 136.86,-10.658 136.201,-10.358C135.542,-10.059 134.823,-9.909 134.044,-9.909C133.295,-9.909 132.577,-10.059 131.888,-10.358C131.229,-10.688 130.6,-11.107 130.031,-11.706C129.432,-12.335 128.982,-13.024 128.683,-13.803C128.354,-14.551 128.204,-15.36 128.204,-16.199ZM130.899,-14.402C130.899,-13.024 131.169,-11.976 131.678,-11.317C132.187,-10.658 132.966,-10.328 134.044,-10.328C135.122,-10.328 135.901,-10.658 136.41,-11.317C136.919,-11.976 137.159,-13.024 137.159,-14.402L137.159,-18.026C137.159,-19.403 136.919,-20.452 136.41,-21.111C135.901,-21.77 135.122,-22.099 134.044,-22.099C132.966,-22.099 132.187,-21.77 131.678,-21.111C131.169,-20.452 130.899,-19.403 130.899,-18.026L130.899,-14.402Z" style="fill:rgb(35,31,32);fill-rule:nonzero;"/>
                <path d="M144.138,-14.491C144.138,-13.024 144.377,-11.946 144.797,-11.317C145.246,-10.658 145.965,-10.328 146.953,-10.328C147.822,-10.328 148.57,-10.568 149.229,-11.077C149.888,-11.586 150.427,-12.335 150.817,-13.293L150.817,-18.655C150.427,-19.703 149.918,-20.512 149.259,-21.081C148.6,-21.68 147.852,-21.949 147.013,-21.949C146.055,-21.949 145.336,-21.62 144.856,-20.961C144.377,-20.272 144.138,-19.284 144.138,-17.936L144.138,-14.491ZM150.847,-12.215C150.338,-11.436 149.768,-10.837 149.139,-10.448C148.54,-10.059 147.852,-9.879 147.103,-9.879C145.426,-9.879 144.048,-10.478 143,-11.646C141.951,-12.814 141.412,-14.342 141.412,-16.229C141.412,-17.936 141.951,-19.403 143.029,-20.631C144.108,-21.889 145.396,-22.488 146.833,-22.488C147.702,-22.488 148.481,-22.249 149.169,-21.77C149.858,-21.29 150.397,-20.631 150.817,-19.733L150.817,-29.647L149.11,-29.647L149.11,-30.066L150.547,-30.066C151.086,-30.066 151.566,-30.126 152.015,-30.246C152.464,-30.365 152.913,-30.545 153.333,-30.785L153.333,-10.658L155.07,-10.658L155.07,-10.238L150.847,-10.238L150.847,-12.215Z" style="fill:rgb(35,31,32);fill-rule:nonzero;"/>
            </g>
        </g>
        <g transform="matrix(4.16667,0,0,4.16667,-161.194,290.781)">
            <g transform="matrix(1,0,0,1,0,2.4)">
                <path d="M119.468,-40.537C109.987,-41.588 105.687,-51.498 108.798,-60.175C112.298,-67.199 118.568,-70.917 126.418,-69.483C128.582,-68.9 130.396,-67.993 132.081,-66.567C133.84,-65.079 134.779,-62.824 136.359,-61.147C136.116,-60.248 134.342,-54.804 134.196,-54.804C132.13,-61.026 128.338,-64.987 121.533,-64.987C110.208,-63.188 108.847,-47.828 120.415,-45.179C129.311,-45.179 131.377,-54.852 124.717,-59.834C116.138,-63.31 114.266,-48.922 122.044,-50.016C125.908,-51.547 123.016,-57.574 120.683,-54.949C120.683,-53.929 120.853,-54.22 121.849,-54.22C124.547,-53.078 120.075,-47.853 118.301,-53.929C118.301,-63.188 130.21,-58.498 126.783,-49.53C123.356,-45.155 116.551,-45.884 114.266,-51.085C111.204,-61.706 122.424,-68.09 129.942,-60.466C133.026,-57.341 133.786,-53.273 133.005,-48.946C131.963,-43.169 123.997,-40.035 119.468,-40.537Z" style="fill:rgb(237,28,36);"/>
                <path d="M127.925,-40.634C127.925,-40.683 127.925,-40.732 127.925,-40.78C129.967,-42.044 131.79,-43.235 133.005,-45.349C133.102,-45.155 133.272,-42.87 133.272,-41.947C131.474,-41.145 129.894,-40.829 127.925,-40.634Z" style="fill:rgb(237,28,36);"/>
                <path d="M134.973,-42.36C132.276,-43.016 136.31,-58.036 136.942,-59.762C137.331,-59.762 137.234,-58.206 137.234,-57.963C136.845,-54.682 136.807,-46.938 141.949,-48.825C147.066,-50.702 143.558,-55.951 141.549,-59.179C141.359,-59.484 141.459,-59.72 141.639,-59.81C143.996,-59.81 143.864,-54.779 146.461,-54.868C147.514,-54.904 149.423,-59.23 150.674,-58.158C151.209,-57.699 147.958,-54.79 147.49,-53.734C144.941,-47.977 143.573,-44.124 137.039,-42.579C136.373,-42.421 135.678,-42.433 134.973,-42.36Z" style="fill:rgb(237,28,36);"/>
            </g>
        </g>
    </g>
</svg>
