<svg xmlns="http://www.w3.org/2000/svg" width="250" height="170" fill="hsl(204,45%,45%)">
    <path d="M84.092 55.985a2.141 2.141 0 0 0 1.976-2.13 2.14 2.14 0 0 0-1.976-2.129v-17.59h38.697v78.335c-3.202-.905-8.856-2.854-14.876-6.536.275-.36.448-.801.448-1.289a2.147 2.147 0 0 0-2.147-2.147c-.794 0-1.467.445-1.838 1.086-8.888-6.41-17.658-16.829-19.784-33.426.59-.383.989-1.037.989-1.792 0-.906-.562-1.676-1.355-1.992a64.363 64.363 0 0 1-.134-4.033v-6.357zm81.815-21.849v28.206a59.44 59.44 0 0 1-.878 10.283h-37.82V34.136h38.698zm-5.044 46.269c0-1.421.246-2.484.579-3.339 0-.013 0-.013.01-.02h2.622a48.524 48.524 0 0 1-2.47 7.079c-.412-.917-.74-2.08-.74-3.72m-2.437 9.691a46.646 46.646 0 0 1-6.457 8.084 10.109 10.109 0 0 1-.184-1.954c0-2.62.836-4.024 1.51-5.15.532-.89.853-1.427.853-2.763 0-1.335-.321-1.873-.853-2.762-.672-1.126-1.51-2.528-1.51-5.146 0-1.394.236-2.442.559-3.289.01-.026.02-.045.03-.07h4.598c-.337.86-.589 1.925-.589 3.36 0 2.617.838 4.019 1.511 5.145.531.889.852 1.427.852 2.762 0 .798-.116 1.31-.322 1.783m-9.608.98c-.674 1.126-1.51 2.53-1.51 5.15 0 2.475.745 3.862 1.395 4.958a53.438 53.438 0 0 1-3.149 2.451c-.07.05-.142.09-.201.146-.102.07-.205.139-.307.211-.03-1.223-.338-1.759-.849-2.615-.673-1.126-1.509-2.531-1.509-5.151 0-2.62.836-4.024 1.51-5.15.531-.89.853-1.427.853-2.764 0-1.335-.322-1.872-.853-2.761-.672-1.126-1.51-2.529-1.51-5.146 0-1.434.251-2.5.589-3.359h4.618c-.334.858-.583 1.924-.583 3.353 0 2.617.837 4.02 1.51 5.146.531.889.852 1.426.852 2.761 0 1.336-.321 1.874-.852 2.764m-9.098 10.301c.533.892.854 1.429.854 2.769 0 1.338-.321 1.876-.852 2.766-.108.182-.22.374-.333.573a62.088 62.088 0 0 1-5.516 2.64c.281-1.443.844-2.403 1.327-3.213.533-.89.853-1.428.853-2.766 0-1.34-.32-1.877-.853-2.769-.672-1.126-1.51-2.531-1.51-5.151 0-2.62.838-4.024 1.51-5.15.533-.89.853-1.428.853-2.764 0-1.335-.32-1.872-.852-2.761-.673-1.126-1.511-2.529-1.511-5.146 0-1.434.252-2.5.589-3.359h4.52c-.333.857-.583 1.926-.583 3.359 0 2.617.838 4.02 1.51 5.146.532.889.853 1.426.853 2.761 0 1.336-.321 1.874-.853 2.764-.673 1.126-1.51 2.53-1.51 5.15 0 2.62.837 4.025 1.509 5.151m-8.996 0c.533.892.852 1.429.852 2.769 0 1.338-.319 1.876-.852 2.766-.654 1.097-1.458 2.463-1.501 4.946-.749.244-1.422.445-2.015.613V77.04h2.597c-.339.859-.591 1.924-.591 3.359 0 2.617.837 4.02 1.511 5.146.532.889.851 1.426.851 2.761 0 1.336-.319 1.874-.852 2.764-.673 1.126-1.51 2.53-1.51 5.15 0 2.62.837 4.025 1.51 5.151M79.408 62.342c0 46.055 44.692 55.3 45.143 55.388l.449.09.448-.09c.452-.09 45.143-9.333 45.143-55.388v-32.89H79.408v32.89zm35.013 44.451a2.146 2.146 0 1 0 0-4.295 2.146 2.146 0 0 0 0 4.295m0-14.512a2.147 2.147 0 1 0 0-4.295 2.147 2.147 0 0 0 0 4.295m-17.5-4.293a2.147 2.147 0 1 0 0 4.293 2.147 2.147 0 0 0 0-4.293m8.75 0a2.146 2.146 0 1 0 0 4.295 2.146 2.146 0 0 0 0-4.295m12.792 7.255a2.146 2.146 0 1 0 0 4.296 2.146 2.146 0 0 0 0-4.296m-8.528 0a2.147 2.147 0 1 0-.002 4.293 2.147 2.147 0 0 0 .002-4.293m-8.529 4.293a2.146 2.146 0 1 0 0-4.293 2.146 2.146 0 0 0 0 4.293M88.171 77.769a2.147 2.147 0 1 0 0-4.294 2.147 2.147 0 0 0 0 4.294m26.25 0a2.146 2.146 0 1 0 0-4.294 2.146 2.146 0 1 0 0 4.294m-17.5-4.293a2.147 2.147 0 1 0 0 4.293 2.147 2.147 0 0 0 0-4.293m8.75 4.293a2.147 2.147 0 1 0 0-4.293 2.147 2.147 0 0 0 0 4.293m12.792 2.962a2.146 2.146 0 1 0 0 4.296 2.146 2.146 0 0 0 0-4.296m-8.528 0a2.147 2.147 0 1 0-.002 4.293 2.147 2.147 0 0 0 .002-4.293m-17.057 4.294a2.147 2.147 0 1 0 0-4.293 2.147 2.147 0 0 0 0 4.293m8.528 0a2.147 2.147 0 1 0 0-4.293 2.147 2.147 0 0 0 0 4.293M88.171 63.258a2.147 2.147 0 1 0-.001-4.294 2.147 2.147 0 0 0 .001 4.294m26.25 0a2.146 2.146 0 1 0 0-4.292 2.146 2.146 0 0 0 0 4.292m-17.5-4.294a2.147 2.147 0 1 0 0 4.293 2.147 2.147 0 0 0 0-4.293m10.896 2.147a2.147 2.147 0 1 0-4.293 0 2.147 2.147 0 0 0 4.293 0m10.646 5.109a2.146 2.146 0 1 0 0 4.292 2.146 2.146 0 0 0 0-4.292m-8.528 0a2.147 2.147 0 1 0 0 4.294 2.147 2.147 0 0 0 0-4.294m-17.057 4.294a2.147 2.147 0 1 0 0-4.293 2.147 2.147 0 0 0 0 4.293m8.528 0a2.147 2.147 0 1 0 0-4.293 2.147 2.147 0 0 0 0 4.293M88.171 48.746a2.147 2.147 0 1 0 0-4.293 2.147 2.147 0 0 0 0 4.293m26.25 0a2.146 2.146 0 1 0 0-4.295 2.146 2.146 0 0 0 0 4.295m-17.5 0a2.147 2.147 0 1 0 0-4.293 2.147 2.147 0 0 0 0 4.293m8.75 0a2.147 2.147 0 1 0 0-4.293 2.147 2.147 0 0 0 0 4.293m-21.764-7.293a2.146 2.146 0 1 0 0-4.294 2.146 2.146 0 1 0 0 4.294m34.556 0a2.146 2.146 0 1 0 0-4.295 2.146 2.146 0 0 0 0 4.295m-8.528 0a2.147 2.147 0 1 0 0-4.293 2.147 2.147 0 0 0 0 4.293m-17.057 0a2.147 2.147 0 1 0 0-4.293 2.147 2.147 0 0 0 0 4.293m8.528 0a2.147 2.147 0 1 0 0-4.293 2.147 2.147 0 0 0 0 4.293m17.057 14.548a2.146 2.146 0 1 0 0-4.294 2.146 2.146 0 1 0 0 4.294m-8.528 0a2.147 2.147 0 1 0 0-4.293 2.147 2.147 0 0 0 0 4.293m-17.057 0a2.147 2.147 0 1 0 0-4.294 2.147 2.147 0 0 0 0 4.294m8.528 0a2.147 2.147 0 1 0 0-4.293 2.147 2.147 0 0 0 0 4.293m55.078 4.271h-2.496l-1.652-8.051-2.055 8.051h-2.458l-3.867-14.376h3.247l1.849 7.319 1.896-7.319h2.468l1.839 7.301 1.849-7.301h3.265l-3.885 14.376zm-22.231 0V45.896h8.108v3.096h-5.011v2.515h5.011v3.097h-5.011v5.668h-3.097zM68.157 44.615c.01.01.012.026.017.058.029 0 .045 0 .047.01l-.065-.065zM56.1 50c1.534 1.534 3.891 1.786 4.899 1.805l.049.05c0-.01-.01-.024-.015-.049h.404c-.01.025-.011.042-.016.049l.05-.05c1.006-.019 3.363-.271 4.897-1.805 1.855-1.855 1.889-4.871 1.808-5.328-.415-.04-3.484-.058-5.338 1.797-.896.896-1.365 2.062-1.604 3.082-.238-1.02-.707-2.186-1.603-3.082-1.854-1.854-4.923-1.837-5.338-1.797-.08.457-.047 3.473 1.808 5.328m-1.791-5.385l-.065.065s.019-.01.047-.01c0-.031.011-.051.018-.058m13.4 12.799c.01 0 .015.025.024.055h.049l-.072-.058zm-6.313 7.945l.055.044c-.01 0-.014-.022-.021-.047.075-.01.143-.014.2-.021.057-.01.125-.014.201-.022 0 .024-.01.044-.01.05l.044-.055c.998-.131 3.313-.645 4.667-2.341 1.635-2.05 1.332-5.052 1.2-5.497-.417.01-3.468.333-5.103 2.383-.791.99-1.126 2.201-1.25 3.241-.351-.986-.946-2.092-1.937-2.884-2.05-1.636-5.097-1.276-5.505-1.19-.03.463.34 3.457 2.39 5.093 1.696 1.352 4.067 1.341 5.07 1.247m-7.506-6.328s.019-.01.046-.013c0-.032.01-.053.011-.059l-.058.071zm15.449 10.095c.01 0 .017.022.03.052h.047l-.078-.05zM68.3 85.174c-.575 1.129-.661 2.382-.572 3.426-.543-.896-1.35-1.86-2.478-2.435-2.336-1.191-5.25-.227-5.631-.06.062.46 1.027 3.318 3.364 4.509 1.932.985 4.253.497 5.217.204l.061.03c-.01 0-.017-.02-.03-.04.074-.02.138-.04.193-.06.054-.02.118-.04.19-.06v.05l.032-.06c.951-.33 3.116-1.298 4.101-3.23 1.191-2.338.291-5.217.072-5.627-.407.09-3.33 1.023-4.521 3.359m4.489-3.412c.01 0 .02.02.035.05h.047l-.083-.04zm-8.879-4.074l.059.037c-.01 0-.015-.021-.026-.044.075-.016.141-.03.197-.044.058-.013.123-.026.198-.044 0 .025 0 .044-.01.05l.038-.059c.979-.236 3.226-.994 4.391-2.823 1.409-2.212.79-5.165.611-5.592-.413.051-3.413.697-4.822 2.91-.681 1.069-.886 2.309-.898 3.355-.453-.943-1.163-1.98-2.232-2.661-2.213-1.409-5.204-.728-5.601-.599.02.462.706 3.401 2.918 4.81 1.83 1.165 4.185.901 5.173.702M55.773 72.2s.018-.01.045-.017v-.06l-.05.078zm3.803 13.927s.016-.01.043-.02c0-.03-.01-.05 0-.06l-.041.08zm123.849-41.511l-.06.065s.02-.01.05-.01c0-.031.01-.051.02-.058m1.78 5.388c1.534 1.534 3.891 1.786 4.899 1.805l.05.05c0-.01-.01-.024-.01-.049h.403c0 .025-.01.042-.02.049l.05-.05c1.006-.019 3.364-.271 4.898-1.805 1.854-1.855 1.888-4.871 1.807-5.328-.415-.04-3.483-.058-5.337 1.797-.897.896-1.366 2.062-1.604 3.082-.239-1.02-.706-2.186-1.603-3.082-1.855-1.854-4.924-1.837-5.339-1.797-.08.457-.05 3.473 1.808 5.328m12.055-5.385c0 .01.01.026.02.058.03 0 .05 0 .05.01l-.06-.065zM183.8 57.47h.05c.01-.03.02-.05.03-.055l-.07.057zm13.832 1.488c0 .01 0 .028.01.059.03.01.04.01.05.013l-.06-.071zm-5.493 1.248c-.991.79-1.586 1.897-1.938 2.882-.122-1.038-.458-2.25-1.248-3.24-1.637-2.05-4.688-2.375-5.104-2.382-.133.445-.435 3.446 1.201 5.496 1.353 1.695 3.668 2.21 4.666 2.341l.04.054c0-.01 0-.025-.01-.05.08.01.144.018.201.023.06.01.125.016.2.022 0 .025-.02.043-.02.047l.05-.044c1.004.093 3.374.105 5.07-1.247 2.049-1.636 2.42-4.63 2.39-5.093-.408-.086-3.455-.446-5.505 1.19m-9.969 8.969h.05c.01-.029.02-.047.03-.052l-.08.05zm-3.451 12.635h.05c.02-.03.03-.04.03-.05l-.08.04zm17.053-9.628l.05.018-.05-.078v.06m-5.602.599c-1.069.681-1.779 1.717-2.233 2.661-.01-1.046-.217-2.286-.898-3.355-1.409-2.212-4.408-2.86-4.822-2.91-.178.428-.798 3.38.612 5.593 1.165 1.828 3.412 2.586 4.391 2.822l.04.06v-.052c.07.018.14.033.197.044.06.014.122.03.197.044-.01.024-.02.04-.02.045l.06-.037c.987.199 3.344.463 5.172-.702 2.213-1.409 2.899-4.348 2.918-4.81-.396-.13-3.388-.81-5.6.598m-3.846 13.384c-1.13.575-1.935 1.54-2.478 2.435.09-1.042 0-2.296-.572-3.426-1.191-2.336-4.115-3.268-4.521-3.358-.219.409-1.118 3.289.07 5.625.985 1.933 3.15 2.902 4.101 3.23l.03.06v-.05c.07.02.136.05.191.06.06.02.119.04.193.06-.01.02-.02.04-.03.04l.06-.03c.963.292 3.284.781 5.216-.204 2.337-1.192 3.302-4.05 3.364-4.509-.381-.166-3.295-1.131-5.631.06m5.639-.05c.03.01.04.02.04.02l-.04-.08v.06m-65.069-67.083v-5.806c4.859-.06 20.261 1.098 28.83 5.806h-28.83zm37.699-.093c-13.932-9.908-38.896-10.135-40.008-10.087l-2.111.095v10.085h-43.05v4.421h90.431c-2.117-2.445-5.262-4.514-5.262-4.514"/>
    <g style="-inkscape-font-specification:Nanami-Bold">
        <path d="M5.295 160.893v-25.448h14.352v5.481h-8.87v4.452h8.87v5.482h-8.87v10.033H5.295zm33.511-25.714q5.282 0 9.086 3.787 3.804 3.804 3.804 9.203 0 5.399-3.804 9.203-3.804 3.787-9.202 3.787-5.4 0-9.203-3.787-3.787-3.804-3.787-9.203 0-5.382 3.787-9.203 3.77-3.787 9.319-3.787zm-.166 5.482q-3.04 0-5.25 2.192-2.209 2.21-2.209 5.3 0 3.072 2.21 5.282 2.225 2.209 5.315 2.209 3.09 0 5.283-2.193 2.192-2.192 2.192-5.282 0-3.123-2.21-5.332-2.142-2.176-5.331-2.176zm32.447-5.482q5.283 0 9.087 3.787 3.804 3.804 3.804 9.203 0 5.399-3.804 9.203-3.804 3.787-9.203 3.787-5.399 0-9.202-3.787-3.788-3.804-3.788-9.203 0-5.382 3.788-9.203 3.77-3.787 9.318-3.787zm-.166 5.482q-3.04 0-5.249 2.192-2.209 2.21-2.209 5.3 0 3.072 2.21 5.282 2.225 2.209 5.315 2.209 3.09 0 5.282-2.193 2.193-2.192 2.193-5.282 0-3.123-2.21-5.332-2.142-2.176-5.332-2.176zm20.167 20.232v-25.448h8.472q5.3 0 9.053 3.754 3.738 3.737 3.738 8.97 0 5.232-3.738 8.97-3.754 3.754-9.053 3.754h-8.472zm5.482-5.482h2.99q3.223 0 5.282-2.043 2.027-2.026 2.027-5.216 0-3.256-2.01-5.265-1.977-1.96-5.083-1.96H96.57v14.484zm42.675 5.482h-4.418l-2.924-14.252-3.638 14.252h-4.352l-6.843-25.448h5.747l3.272 12.956 3.356-12.956h4.369l3.256 12.923 3.272-12.923h5.78l-6.877 25.448zm24.768-25.714q5.282 0 9.086 3.787 3.804 3.804 3.804 9.203 0 5.399-3.804 9.203-3.804 3.787-9.202 3.787-5.399 0-9.203-3.787-3.787-3.804-3.787-9.203 0-5.382 3.787-9.203 3.77-3.787 9.319-3.787zm-.167 5.482q-3.039 0-5.249 2.192-2.209 2.21-2.209 5.3 0 3.072 2.21 5.282 2.225 2.209 5.315 2.209 3.09 0 5.282-2.193 2.193-2.192 2.193-5.282 0-3.123-2.209-5.332-2.143-2.176-5.333-2.176zm32.046 20.232l-5.714-9.933h-.682v9.933h-5.515v-25.448h8.34q3.322 0 5.564 2.259 2.292 2.292 2.292 5.797 0 4.552-4.086 6.844l6.063 10.548h-6.262zm-6.396-14.967h2.824q1.196 0 1.844-.88.498-.681.498-1.628 0-1.146-.714-1.86-.631-.632-1.628-.632h-2.824v5zm18.253 14.967v-25.448h5.481v9.85l6.163-9.85h6.263l-7.791 12.757 7.924 12.691h-6.429l-6.13-10.913v10.913h-5.481zm21.956-5.548l4.419-1.91q1.262 2.259 3.023 2.259.863 0 1.445-.582.631-.614.631-1.628 0-1.461-1.163-2.192-.482-.3-1.993-.83-6.23-2.21-6.23-7.642 0-3.389 2.094-5.498 2.06-2.077 5.332-2.077 2.824 0 4.884 1.828 1.179 1.063 1.876 2.857l-4.9 2.358q-.863-1.528-1.976-1.528-.848 0-1.429.781-.398.565-.398 1.213 0 1.511 2.823 2.591l.449.166q6.113 2.359 6.113 7.89 0 3.422-2.226 5.648-2.126 2.11-5.116 2.11h-.283q-3.937 0-6.163-3.273-.78-1.146-1.212-2.541z" style="-inkscape-font-specification:'Nanami Bold'" font-weight="700" font-size="61.013" font-family="Nanami"/>
    </g>
</svg>
