<?xml version="1.0" encoding="UTF-8" standalone="no"?>
<!DOCTYPE svg PUBLIC "-//W3C//DTD SVG 1.1//EN" "http://www.w3.org/Graphics/SVG/1.1/DTD/svg11.dtd">
<svg width="100%" height="100%" viewBox="0 0 240 153" version="1.1" xmlns="http://www.w3.org/2000/svg" xmlns:xlink="http://www.w3.org/1999/xlink" xml:space="preserve" xmlns:serif="http://www.serif.com/" style="fill-rule:evenodd;clip-rule:evenodd;stroke-linejoin:round;stroke-miterlimit:1.41421;">
    <g transform="matrix(1,0,0,1,-5.295,-8.84103)">
        <g fill="hsl(204,45%,45%)">
            <path d="M84.092,55.985C85.199,55.899 86.066,54.966 86.068,53.855C86.066,52.745 85.199,51.811 84.092,51.726L84.092,34.136L122.789,34.136L122.789,112.471C119.587,111.566 113.933,109.617 107.913,105.935C108.188,105.575 108.361,105.134 108.361,104.646C108.361,103.468 107.392,102.499 106.214,102.499C105.42,102.499 104.747,102.944 104.376,103.585C95.488,97.175 86.718,86.756 84.592,70.159C85.182,69.776 85.581,69.122 85.581,68.367C85.581,67.461 85.019,66.691 84.226,66.375C84.139,65.032 84.095,63.687 84.092,62.342L84.092,55.985ZM165.907,34.136L165.907,62.342C165.913,65.789 165.619,69.229 165.029,72.625L127.209,72.625L127.209,34.136L165.907,34.136ZM160.863,80.405C160.863,78.984 161.109,77.921 161.442,77.066C161.442,77.053 161.442,77.053 161.452,77.046L164.074,77.046C163.434,79.466 162.609,81.833 161.604,84.125C161.192,83.208 160.864,82.045 160.864,80.405M158.427,90.096C156.581,93.022 154.415,95.733 151.97,98.18C151.845,97.536 151.784,96.882 151.786,96.226C151.786,93.606 152.622,92.202 153.296,91.076C153.828,90.186 154.149,89.649 154.149,88.313C154.149,86.978 153.828,86.44 153.296,85.551C152.624,84.425 151.786,83.023 151.786,80.405C151.786,79.011 152.022,77.963 152.345,77.116C152.355,77.09 152.365,77.071 152.375,77.046L156.973,77.046C156.636,77.906 156.384,78.971 156.384,80.406C156.384,83.023 157.222,84.425 157.895,85.551C158.426,86.44 158.747,86.978 158.747,88.313C158.747,89.111 158.631,89.623 158.425,90.096M148.817,91.076C148.143,92.202 147.307,93.606 147.307,96.226C147.307,98.701 148.052,100.088 148.702,101.184C147.683,102.04 146.633,102.857 145.553,103.635C145.483,103.685 145.411,103.725 145.352,103.781C145.25,103.851 145.147,103.92 145.045,103.992C145.015,102.769 144.707,102.233 144.196,101.377C143.523,100.251 142.687,98.846 142.687,96.226C142.687,93.606 143.523,92.202 144.197,91.076C144.728,90.186 145.05,89.649 145.05,88.312C145.05,86.977 144.728,86.44 144.197,85.551C143.525,84.425 142.687,83.022 142.687,80.405C142.687,78.971 142.938,77.905 143.276,77.046L147.894,77.046C147.56,77.904 147.311,78.97 147.311,80.399C147.311,83.016 148.148,84.419 148.821,85.545C149.352,86.434 149.673,86.971 149.673,88.306C149.673,89.642 149.352,90.18 148.821,91.07M139.723,101.371C140.256,102.263 140.577,102.8 140.577,104.14C140.577,105.478 140.256,106.016 139.725,106.906C139.617,107.088 139.505,107.28 139.392,107.479C137.598,108.449 135.757,109.33 133.876,110.119C134.157,108.676 134.72,107.716 135.203,106.906C135.736,106.016 136.056,105.478 136.056,104.14C136.056,102.8 135.736,102.263 135.203,101.371C134.531,100.245 133.693,98.84 133.693,96.22C133.693,93.6 134.531,92.196 135.203,91.07C135.736,90.18 136.056,89.642 136.056,88.306C136.056,86.971 135.736,86.434 135.204,85.545C134.531,84.419 133.693,83.016 133.693,80.399C133.693,78.965 133.945,77.899 134.282,77.04L138.802,77.04C138.469,77.897 138.219,78.966 138.219,80.399C138.219,83.016 139.057,84.419 139.729,85.545C140.261,86.434 140.582,86.971 140.582,88.306C140.582,89.642 140.261,90.18 139.729,91.07C139.056,92.196 138.219,93.6 138.219,96.22C138.219,98.84 139.056,100.245 139.728,101.371M130.732,101.371C131.265,102.263 131.584,102.8 131.584,104.14C131.584,105.478 131.265,106.016 130.732,106.906C130.078,108.003 129.274,109.369 129.231,111.852C128.482,112.096 127.809,112.297 127.216,112.465L127.216,77.04L129.813,77.04C129.474,77.899 129.222,78.964 129.222,80.399C129.222,83.016 130.059,84.419 130.733,85.545C131.265,86.434 131.584,86.971 131.584,88.306C131.584,89.642 131.265,90.18 130.732,91.07C130.059,92.196 129.222,93.6 129.222,96.22C129.222,98.84 130.059,100.245 130.732,101.371M79.408,62.342C79.408,108.397 124.1,117.642 124.551,117.73L125,117.82L125.448,117.73C125.9,117.64 170.591,108.397 170.591,62.342L170.591,29.452L79.408,29.452L79.408,62.342ZM114.421,106.793C115.599,106.793 116.569,105.824 116.569,104.646C116.569,103.467 115.599,102.498 114.421,102.498C113.243,102.498 112.274,103.467 112.274,104.646C112.274,105.824 113.243,106.793 114.421,106.793M114.421,92.281C115.599,92.281 116.569,91.312 116.569,90.134C116.569,88.955 115.599,87.986 114.421,87.986C113.243,87.986 112.273,88.955 112.273,90.134C112.273,91.312 113.243,92.281 114.421,92.281M96.921,87.988C96.906,87.988 96.89,87.988 96.875,87.988C95.697,87.988 94.728,88.957 94.728,90.135C94.728,91.312 95.697,92.282 96.875,92.282C96.89,92.282 96.906,92.281 96.921,92.281C98.081,92.256 99.022,91.295 99.022,90.135C99.022,88.974 98.081,88.013 96.921,87.988M105.671,87.988C104.493,87.988 103.523,88.957 103.523,90.136C103.523,91.314 104.493,92.283 105.671,92.283C106.849,92.283 107.818,91.314 107.818,90.136C107.818,88.957 106.849,87.988 105.671,87.988M118.463,95.243C117.285,95.243 116.315,96.213 116.315,97.391C116.315,98.569 117.285,99.539 118.463,99.539C119.641,99.539 120.611,98.569 120.611,97.391C120.611,96.213 119.641,95.243 118.463,95.243M109.935,95.243C109.919,95.243 109.903,95.242 109.888,95.242C108.71,95.242 107.741,96.212 107.741,97.389C107.741,98.567 108.71,99.536 109.888,99.536C109.903,99.536 109.918,99.536 109.933,99.536C111.093,99.511 112.035,98.55 112.035,97.389C112.035,96.23 111.095,95.269 109.935,95.243M101.406,99.536C102.584,99.536 103.553,98.567 103.553,97.39C103.553,96.212 102.584,95.243 101.406,95.243C100.228,95.243 99.259,96.212 99.259,97.39C99.259,98.567 100.228,99.536 101.406,99.536M88.171,77.769C89.349,77.769 90.318,76.8 90.318,75.622C90.318,74.444 89.349,73.475 88.171,73.475C86.993,73.475 86.024,74.444 86.024,75.622C86.024,76.8 86.993,77.769 88.171,77.769M114.421,77.769C115.599,77.769 116.568,76.8 116.568,75.622C116.568,74.444 115.599,73.475 114.421,73.475C113.243,73.475 112.274,74.444 112.274,75.622C112.274,76.8 113.243,77.769 114.421,77.769M96.921,73.476C96.906,73.476 96.89,73.476 96.875,73.476C95.697,73.476 94.728,74.445 94.728,75.623C94.728,76.8 95.697,77.77 96.875,77.77C96.89,77.77 96.906,77.769 96.921,77.769C98.081,77.744 99.022,76.783 99.022,75.623C99.022,74.462 98.081,73.501 96.921,73.476M105.671,77.769C105.686,77.769 105.702,77.77 105.717,77.77C106.895,77.77 107.864,76.8 107.864,75.623C107.864,74.445 106.895,73.476 105.717,73.476C105.702,73.476 105.686,73.476 105.671,73.476C104.511,73.501 103.57,74.462 103.57,75.623C103.57,76.783 104.511,77.744 105.671,77.769M118.463,80.731C117.285,80.731 116.315,81.701 116.315,82.879C116.315,84.057 117.285,85.027 118.463,85.027C119.641,85.027 120.611,84.057 120.611,82.879C120.611,81.701 119.641,80.731 118.463,80.731M109.935,80.731C109.919,80.731 109.903,80.73 109.888,80.73C108.71,80.73 107.741,81.7 107.741,82.877C107.741,84.055 108.71,85.024 109.888,85.024C109.903,85.024 109.918,85.024 109.933,85.024C111.093,84.999 112.035,84.038 112.035,82.877C112.035,81.718 111.095,80.757 109.935,80.731M92.878,85.025C92.893,85.025 92.909,85.026 92.924,85.026C94.102,85.026 95.071,84.056 95.071,82.879C95.071,81.701 94.102,80.732 92.924,80.732C92.909,80.732 92.893,80.732 92.878,80.732C91.718,80.757 90.777,81.718 90.777,82.879C90.777,84.039 91.718,85 92.878,85.025M101.406,85.025C101.421,85.025 101.437,85.026 101.452,85.026C102.63,85.026 103.599,84.056 103.599,82.879C103.599,81.701 102.63,80.732 101.452,80.732C101.437,80.732 101.421,80.732 101.406,80.732C100.246,80.757 99.305,81.718 99.305,82.879C99.305,84.039 100.246,85 101.406,85.025M88.171,63.258C89.349,63.258 90.318,62.289 90.318,61.111C90.318,59.933 89.348,58.964 88.171,58.964C88.17,58.964 88.17,58.964 88.17,58.964C86.992,58.964 86.023,59.933 86.023,61.111C86.023,62.289 86.993,63.258 88.171,63.258C88.171,63.258 88.171,63.258 88.171,63.258M114.421,63.258C115.598,63.258 116.567,62.289 116.567,61.112C116.567,59.935 115.598,58.966 114.421,58.966C113.244,58.966 112.275,59.935 112.275,61.112C112.275,62.289 113.244,63.258 114.421,63.258M96.921,58.964C96.906,58.964 96.89,58.964 96.875,58.964C95.697,58.964 94.728,59.933 94.728,61.111C94.728,62.288 95.697,63.258 96.875,63.258C96.89,63.258 96.906,63.257 96.921,63.257C98.081,63.232 99.022,62.271 99.022,61.111C99.022,59.95 98.081,58.989 96.921,58.964M107.817,61.111C107.817,61.096 107.818,61.08 107.818,61.065C107.818,59.887 106.848,58.918 105.671,58.918C104.493,58.918 103.524,59.887 103.524,61.065C103.524,61.08 103.524,61.096 103.524,61.111C103.549,62.271 104.51,63.212 105.671,63.212C106.831,63.212 107.792,62.271 107.817,61.111M118.463,66.22C117.286,66.22 116.317,67.189 116.317,68.366C116.317,69.543 117.286,70.512 118.463,70.512C119.64,70.512 120.609,69.543 120.609,68.366C120.609,67.189 119.64,66.22 118.463,66.22M109.935,66.22C108.757,66.22 107.788,67.189 107.788,68.367C107.788,69.545 108.757,70.514 109.935,70.514C111.113,70.514 112.082,69.545 112.082,68.367C112.082,67.189 111.113,66.22 109.935,66.22M92.878,70.514C92.893,70.514 92.909,70.515 92.924,70.515C94.102,70.515 95.071,69.545 95.071,68.367C95.071,67.19 94.102,66.22 92.924,66.22C92.909,66.22 92.893,66.221 92.878,66.221C91.718,66.246 90.777,67.207 90.777,68.367C90.777,69.528 91.718,70.489 92.878,70.514M101.406,70.514C101.421,70.514 101.437,70.515 101.452,70.515C102.63,70.515 103.599,69.545 103.599,68.367C103.599,67.19 102.63,66.22 101.452,66.22C101.437,66.22 101.421,66.221 101.406,66.221C100.246,66.246 99.305,67.207 99.305,68.367C99.305,69.528 100.246,70.489 101.406,70.514M88.171,48.746C88.186,48.746 88.202,48.747 88.217,48.747C89.395,48.747 90.364,47.777 90.364,46.6C90.364,45.422 89.395,44.453 88.217,44.453C88.202,44.453 88.186,44.453 88.171,44.453C87.011,44.478 86.07,45.439 86.07,46.6C86.07,47.76 87.011,48.721 88.171,48.746M114.421,48.746C115.599,48.746 116.569,47.777 116.569,46.599C116.569,45.42 115.599,44.451 114.421,44.451C113.243,44.451 112.274,45.42 112.274,46.599C112.274,47.777 113.243,48.746 114.421,48.746M96.921,48.746C96.936,48.746 96.952,48.747 96.967,48.747C98.145,48.747 99.114,47.777 99.114,46.6C99.114,45.422 98.145,44.453 96.967,44.453C96.952,44.453 96.936,44.453 96.921,44.453C95.761,44.478 94.82,45.439 94.82,46.6C94.82,47.76 95.761,48.721 96.921,48.746M105.671,48.746C105.686,48.746 105.702,48.747 105.717,48.747C106.895,48.747 107.864,47.777 107.864,46.6C107.864,45.422 106.895,44.453 105.717,44.453C105.702,44.453 105.686,44.453 105.671,44.453C104.511,44.478 103.57,45.439 103.57,46.6C103.57,47.76 104.511,48.721 105.671,48.746M83.907,41.453C85.085,41.453 86.054,40.484 86.054,39.306C86.054,38.128 85.085,37.159 83.907,37.159C82.729,37.159 81.76,38.128 81.76,39.306C81.76,40.484 82.729,41.453 83.907,41.453M118.463,41.453C119.641,41.453 120.611,40.484 120.611,39.306C120.611,38.127 119.641,37.158 118.463,37.158C117.285,37.158 116.316,38.127 116.316,39.306C116.316,40.484 117.285,41.453 118.463,41.453M109.935,41.453C109.95,41.453 109.966,41.454 109.981,41.454C111.159,41.454 112.128,40.484 112.128,39.307C112.128,38.129 111.159,37.16 109.981,37.16C109.966,37.16 109.95,37.16 109.935,37.16C108.775,37.185 107.834,38.146 107.834,39.307C107.834,40.467 108.775,41.428 109.935,41.453M92.878,41.453C92.893,41.453 92.909,41.454 92.924,41.454C94.102,41.454 95.071,40.484 95.071,39.307C95.071,38.129 94.102,37.16 92.924,37.16C92.909,37.16 92.893,37.16 92.878,37.16C91.718,37.185 90.777,38.146 90.777,39.307C90.777,40.467 91.718,41.428 92.878,41.453M101.406,41.453C101.421,41.453 101.437,41.454 101.452,41.454C102.63,41.454 103.599,40.484 103.599,39.307C103.599,38.129 102.63,37.16 101.452,37.16C101.437,37.16 101.421,37.16 101.406,37.16C100.246,37.185 99.305,38.146 99.305,39.307C99.305,40.467 100.246,41.428 101.406,41.453M118.463,56.001C119.641,56.001 120.61,55.032 120.61,53.854C120.61,52.676 119.641,51.707 118.463,51.707C117.285,51.707 116.316,52.676 116.316,53.854C116.316,55.032 117.285,56.001 118.463,56.001M109.935,56.001C109.95,56.001 109.966,56.002 109.981,56.002C111.159,56.002 112.128,55.032 112.128,53.855C112.128,52.677 111.159,51.708 109.981,51.708C109.966,51.708 109.95,51.708 109.935,51.708C108.775,51.733 107.834,52.694 107.834,53.855C107.834,55.015 108.775,55.976 109.935,56.001M92.878,56.001C94.056,56.001 95.025,55.032 95.025,53.854C95.025,52.676 94.056,51.707 92.878,51.707C91.7,51.707 90.731,52.676 90.731,53.854C90.731,55.032 91.7,56.001 92.878,56.001M101.406,56.001C101.421,56.001 101.437,56.002 101.452,56.002C102.63,56.002 103.599,55.032 103.599,53.855C103.599,52.677 102.63,51.708 101.452,51.708C101.437,51.708 101.421,51.708 101.406,51.708C100.246,51.733 99.305,52.694 99.305,53.855C99.305,55.015 100.246,55.976 101.406,56.001M156.484,60.272L153.988,60.272L152.336,52.221L150.281,60.272L147.823,60.272L143.956,45.896L147.203,45.896L149.052,53.215L150.948,45.896L153.416,45.896L155.255,53.197L157.104,45.896L160.369,45.896L156.484,60.272ZM134.253,60.272L134.253,45.896L142.361,45.896L142.361,48.992L137.35,48.992L137.35,51.507L142.361,51.507L142.361,54.604L137.35,54.604L137.35,60.272L134.253,60.272ZM68.157,44.615C68.167,44.625 68.169,44.641 68.174,44.673C68.203,44.673 68.219,44.673 68.221,44.683L68.156,44.618L68.157,44.615ZM56.1,50C57.634,51.534 59.991,51.786 60.999,51.805L61.048,51.855C61.048,51.845 61.038,51.831 61.033,51.806L61.437,51.806C61.427,51.831 61.426,51.848 61.421,51.855L61.471,51.805C62.477,51.786 64.834,51.534 66.368,50C68.223,48.145 68.257,45.129 68.176,44.672C67.761,44.632 64.692,44.614 62.838,46.469C61.942,47.365 61.473,48.531 61.234,49.551C60.996,48.531 60.527,47.365 59.631,46.469C57.777,44.615 54.708,44.632 54.293,44.672C54.213,45.129 54.246,48.145 56.101,50M54.31,44.615L54.245,44.68C54.245,44.68 54.264,44.67 54.292,44.67C54.292,44.639 54.303,44.619 54.31,44.612M67.71,57.411C67.72,57.411 67.725,57.436 67.734,57.466L67.783,57.466L67.711,57.408L67.71,57.411ZM61.397,65.356L61.452,65.4C61.442,65.4 61.438,65.378 61.431,65.353C61.506,65.343 61.574,65.339 61.631,65.332C61.688,65.322 61.756,65.318 61.832,65.31C61.832,65.334 61.822,65.354 61.822,65.36L61.866,65.305C62.864,65.174 65.179,64.66 66.533,62.964C68.168,60.914 67.865,57.912 67.733,57.467C67.316,57.477 64.265,57.8 62.63,59.85C61.839,60.84 61.504,62.051 61.38,63.091C61.029,62.105 60.434,60.999 59.443,60.207C57.393,58.571 54.346,58.931 53.938,59.017C53.908,59.48 54.278,62.474 56.328,64.11C58.024,65.462 60.395,65.451 61.398,65.357M53.892,59.029C53.892,59.029 53.911,59.019 53.938,59.016C53.938,58.984 53.948,58.963 53.949,58.957L53.891,59.028L53.892,59.029ZM69.341,69.124C69.351,69.124 69.358,69.146 69.371,69.176L69.418,69.176L69.34,69.126L69.341,69.124ZM68.3,85.174C67.725,86.303 67.639,87.556 67.728,88.6C67.185,87.704 66.378,86.74 65.25,86.165C62.914,84.974 60,85.938 59.619,86.105C59.681,86.565 60.646,89.423 62.983,90.614C64.915,91.599 67.236,91.111 68.2,90.818L68.261,90.848C68.251,90.848 68.244,90.828 68.231,90.808C68.305,90.788 68.369,90.768 68.424,90.748C68.478,90.728 68.542,90.708 68.614,90.688L68.614,90.738L68.646,90.678C69.597,90.348 71.762,89.38 72.747,87.448C73.938,85.11 73.038,82.231 72.819,81.821C72.412,81.911 69.489,82.844 68.298,85.18M72.787,81.768C72.797,81.768 72.807,81.788 72.822,81.818L72.869,81.818L72.786,81.778L72.787,81.768ZM63.908,77.694L63.967,77.731C63.957,77.731 63.952,77.71 63.941,77.687C64.016,77.671 64.082,77.657 64.138,77.643C64.196,77.63 64.261,77.617 64.336,77.599C64.336,77.624 64.336,77.643 64.326,77.649L64.364,77.59C65.343,77.354 67.59,76.596 68.755,74.767C70.164,72.555 69.545,69.602 69.366,69.175C68.953,69.226 65.953,69.872 64.544,72.085C63.863,73.154 63.658,74.394 63.646,75.44C63.193,74.497 62.483,73.46 61.414,72.779C59.201,71.37 56.21,72.051 55.813,72.18C55.833,72.642 56.519,75.581 58.731,76.99C60.561,78.155 62.916,77.891 63.904,77.692M55.773,72.2C55.773,72.2 55.791,72.19 55.818,72.183L55.818,72.123L55.768,72.201L55.773,72.2ZM59.576,86.127C59.576,86.127 59.592,86.117 59.619,86.107C59.619,86.077 59.609,86.057 59.619,86.047L59.578,86.127L59.576,86.127ZM183.425,44.616L183.365,44.681C183.365,44.681 183.385,44.671 183.415,44.671C183.415,44.64 183.425,44.62 183.435,44.613M185.215,50.001C186.749,51.535 189.106,51.787 190.114,51.806L190.164,51.856C190.164,51.846 190.154,51.832 190.154,51.807L190.557,51.807C190.557,51.832 190.547,51.849 190.537,51.856L190.587,51.806C191.593,51.787 193.951,51.535 195.485,50.001C197.339,48.146 197.373,45.13 197.292,44.673C196.877,44.633 193.809,44.615 191.955,46.47C191.058,47.366 190.589,48.532 190.351,49.552C190.112,48.532 189.645,47.366 188.748,46.47C186.893,44.616 183.824,44.633 183.409,44.673C183.329,45.13 183.359,48.146 185.217,50.001M197.272,44.616C197.272,44.626 197.282,44.642 197.292,44.674C197.322,44.674 197.342,44.674 197.342,44.684L197.282,44.619L197.272,44.616ZM183.8,57.47L183.85,57.47C183.86,57.44 183.87,57.42 183.88,57.415L183.81,57.472L183.8,57.47ZM197.632,58.958C197.632,58.968 197.632,58.986 197.642,59.017C197.672,59.027 197.682,59.027 197.692,59.03L197.632,58.959L197.632,58.958ZM192.139,60.206C191.148,60.996 190.553,62.103 190.201,63.088C190.079,62.05 189.743,60.838 188.953,59.848C187.316,57.798 184.265,57.473 183.849,57.466C183.716,57.911 183.414,60.912 185.05,62.962C186.403,64.657 188.718,65.172 189.716,65.303L189.756,65.357C189.756,65.347 189.756,65.332 189.746,65.307C189.826,65.317 189.89,65.325 189.947,65.33C190.007,65.34 190.072,65.346 190.147,65.352C190.147,65.377 190.127,65.395 190.127,65.399L190.177,65.355C191.181,65.448 193.551,65.46 195.247,64.108C197.296,62.472 197.667,59.478 197.637,59.015C197.229,58.929 194.182,58.569 192.132,60.205M182.163,69.174L182.213,69.174C182.223,69.145 182.233,69.127 182.243,69.122L182.163,69.172L182.163,69.174ZM178.712,81.809L178.762,81.809C178.782,81.779 178.792,81.769 178.792,81.759L178.712,81.799L178.712,81.809ZM195.765,72.181L195.815,72.199L195.765,72.121L195.765,72.181M190.163,72.78C189.094,73.461 188.384,74.497 187.93,75.441C187.92,74.395 187.713,73.155 187.032,72.086C185.623,69.874 182.624,69.226 182.21,69.176C182.032,69.604 181.412,72.556 182.822,74.769C183.987,76.597 186.234,77.355 187.213,77.591L187.253,77.651L187.253,77.599C187.323,77.617 187.393,77.632 187.45,77.643C187.51,77.657 187.572,77.673 187.647,77.687C187.637,77.711 187.627,77.727 187.627,77.732L187.687,77.695C188.674,77.894 191.031,78.158 192.859,76.993C195.072,75.584 195.758,72.645 195.777,72.183C195.381,72.053 192.389,71.373 190.177,72.781M186.331,86.165C185.201,86.74 184.396,87.705 183.853,88.6C183.943,87.558 183.853,86.304 183.281,85.174C182.09,82.838 179.166,81.906 178.76,81.816C178.541,82.225 177.642,85.105 178.83,87.441C179.815,89.374 181.98,90.343 182.931,90.671L182.961,90.731L182.961,90.681C183.031,90.701 183.097,90.731 183.152,90.741C183.212,90.761 183.271,90.781 183.345,90.801C183.335,90.821 183.325,90.841 183.315,90.841L183.375,90.811C184.338,91.103 186.659,91.592 188.591,90.607C190.928,89.415 191.893,86.557 191.955,86.098C191.574,85.932 188.66,84.967 186.324,86.158M191.963,86.108C191.993,86.118 192.003,86.128 192.003,86.128L191.963,86.048L191.963,86.108M126.894,19.025L126.894,13.219C131.753,13.159 147.155,14.317 155.724,19.025L126.894,19.025ZM164.593,18.932C150.661,9.024 125.697,8.797 124.585,8.845L122.474,8.94L122.474,19.025L79.424,19.025L79.424,23.446L169.855,23.446C167.738,21.001 164.593,18.932 164.593,18.932" style="fill-rule:nonzero;"/>
            <path d="M5.295,160.893L5.295,135.445L19.647,135.445L19.647,140.926L10.777,140.926L10.777,145.378L19.647,145.378L19.647,150.86L10.777,150.86L10.777,160.893L5.295,160.893ZM38.806,135.179C42.327,135.179 45.356,136.441 47.892,138.966C50.428,141.502 51.696,144.57 51.696,148.169C51.696,151.768 50.428,154.836 47.892,157.372C45.356,159.897 42.289,161.159 38.69,161.159C35.09,161.159 32.022,159.897 29.487,157.372C26.962,154.836 25.7,151.768 25.7,148.169C25.7,144.581 26.962,141.513 29.487,138.966C32,136.441 35.107,135.179 38.806,135.179ZM38.64,140.661C36.613,140.661 34.863,141.392 33.39,142.853C31.917,144.326 31.181,146.093 31.181,148.153C31.181,150.201 31.918,151.962 33.391,153.435C34.874,154.908 36.646,155.644 38.706,155.644C40.766,155.644 42.527,154.913 43.989,153.451C45.45,151.99 46.181,150.229 46.181,148.169C46.181,146.087 45.444,144.31 43.971,142.837C42.543,141.386 40.766,140.661 38.64,140.661ZM71.087,135.179C74.609,135.179 77.638,136.441 80.174,138.966C82.71,141.502 83.978,144.57 83.978,148.169C83.978,151.768 82.71,154.836 80.174,157.372C77.638,159.897 74.57,161.159 70.971,161.159C67.372,161.159 64.304,159.897 61.769,157.372C59.244,154.836 57.981,151.768 57.981,148.169C57.981,144.581 59.244,141.513 61.769,138.966C64.282,136.441 67.388,135.179 71.087,135.179ZM70.921,140.661C68.894,140.661 67.145,141.392 65.672,142.853C64.199,144.326 63.463,146.093 63.463,148.153C63.463,150.201 64.2,151.962 65.673,153.435C67.156,154.908 68.928,155.644 70.988,155.644C73.048,155.644 74.809,154.913 76.27,153.451C77.732,151.99 78.463,150.229 78.463,148.169C78.463,146.087 77.726,144.31 76.253,142.837C74.825,141.386 73.048,140.661 70.921,140.661ZM91.088,160.893L91.088,135.445L99.56,135.445C103.093,135.445 106.111,136.696 108.613,139.199C111.105,141.69 112.351,144.68 112.351,148.169C112.351,151.657 111.105,154.647 108.613,157.139C106.11,159.642 103.093,160.893 99.56,160.893L91.088,160.893ZM96.57,155.411L99.56,155.411C101.709,155.411 103.469,154.73 104.842,153.368C106.193,152.017 106.869,150.279 106.869,148.152C106.869,145.981 106.199,144.226 104.859,142.887C103.541,141.58 101.847,140.927 99.776,140.927L96.57,140.927L96.57,155.411ZM139.245,160.893L134.827,160.893L131.903,146.641L128.265,160.893L123.913,160.893L117.07,135.445L122.817,135.445L126.089,148.401L129.445,135.445L133.814,135.445L137.07,148.368L140.342,135.445L146.122,135.445L139.245,160.893ZM164.013,135.179C167.534,135.179 170.563,136.441 173.099,138.966C175.635,141.502 176.903,144.57 176.903,148.169C176.903,151.768 175.635,154.836 173.099,157.372C170.563,159.897 167.496,161.159 163.897,161.159C160.298,161.159 157.23,159.897 154.694,157.372C152.169,154.836 150.907,151.768 150.907,148.169C150.907,144.581 152.169,141.513 154.694,138.966C157.207,136.441 160.314,135.179 164.013,135.179ZM163.846,140.661C161.82,140.661 160.07,141.392 158.597,142.853C157.124,144.326 156.388,146.093 156.388,148.153C156.388,150.201 157.125,151.962 158.598,153.435C160.081,154.908 161.853,155.644 163.913,155.644C165.973,155.644 167.734,154.913 169.195,153.451C170.657,151.99 171.388,150.229 171.388,148.169C171.388,146.087 170.652,144.31 169.179,142.837C167.75,141.386 165.973,140.661 163.846,140.661ZM195.892,160.893L190.178,150.96L189.496,150.96L189.496,160.893L183.981,160.893L183.981,135.445L192.321,135.445C194.536,135.445 196.39,136.198 197.885,137.704C199.413,139.232 200.177,141.164 200.177,143.501C200.177,146.536 198.815,148.817 196.091,150.345L202.154,160.893L195.892,160.893ZM189.496,145.926L192.32,145.926C193.117,145.926 193.732,145.633 194.164,145.046C194.496,144.592 194.662,144.049 194.662,143.418C194.662,142.654 194.424,142.034 193.948,141.558C193.527,141.137 192.985,140.926 192.32,140.926L189.496,140.926L189.496,145.926ZM207.749,160.893L207.749,135.445L213.23,135.445L213.23,145.295L219.393,135.445L225.656,135.445L217.865,148.202L225.789,160.893L219.36,160.893L213.23,149.98L213.23,160.893L207.749,160.893ZM229.705,155.345L234.124,153.435C234.965,154.941 235.973,155.694 237.147,155.694C237.722,155.694 238.204,155.5 238.592,155.112C239.013,154.703 239.223,154.16 239.223,153.484C239.223,152.51 238.835,151.779 238.06,151.292C237.739,151.092 237.074,150.815 236.067,150.462C231.914,148.989 229.837,146.441 229.837,142.82C229.837,140.561 230.535,138.728 231.931,137.322C233.304,135.937 235.082,135.245 237.263,135.245C239.146,135.245 240.774,135.854 242.147,137.073C242.933,137.782 243.558,138.734 244.023,139.93L239.123,142.288C238.548,141.269 237.889,140.76 237.147,140.76C236.582,140.76 236.105,141.02 235.718,141.541C235.453,141.918 235.32,142.322 235.32,142.754C235.32,143.761 236.261,144.625 238.143,145.345L238.592,145.511C242.667,147.084 244.705,149.714 244.705,153.401C244.705,155.682 243.963,157.565 242.479,159.049C241.062,160.456 239.356,161.159 237.363,161.159L237.08,161.159C234.455,161.159 232.401,160.068 230.917,157.886C230.397,157.122 229.993,156.275 229.705,155.345Z" style="fill-rule:nonzero;"/>
        </g>
    </g>
</svg>
